<?xml version="1.0" standalone="no"?>
<!DOCTYPE svg PUBLIC "-//W3C//DTD SVG 20010904//EN"
 "http://www.w3.org/TR/2001/REC-SVG-20010904/DTD/svg10.dtd">
<svg version="1.0" xmlns="http://www.w3.org/2000/svg"
 width="307.000000pt" height="307.000000pt" viewBox="0 0 307.000000 307.000000"
 preserveAspectRatio="xMidYMid meet">
<metadata>
Created by potrace 1.11, written by Peter Selinger 2001-2013
</metadata>
<g transform="translate(0.000000,307.000000) scale(0.100000,-0.100000)"
fill="#000000" stroke="none">
<path d="M1383 3063 c9 -2 25 -2 35 0 9 3 1 5 -18 5 -19 0 -27 -2 -17 -5z"/>
<path d="M1663 3063 c9 -2 25 -2 35 0 9 3 1 5 -18 5 -19 0 -27 -2 -17 -5z"/>
<path d="M1308 3053 c7 -3 16 -2 19 1 4 3 -2 6 -13 5 -11 0 -14 -3 -6 -6z"/>
<path d="M1758 3053 c7 -3 16 -2 19 1 4 3 -2 6 -13 5 -11 0 -14 -3 -6 -6z"/>
<path d="M524 2698 l-29 -33 33 29 c30 28 37 36 29 36 -2 0 -16 -15 -33 -32z"/>
<path d="M2530 2717 c0 -2 15 -16 33 -33 l32 -29 -29 33 c-28 30 -36 37 -36
29z"/>
<path d="M364 2538 l-29 -33 33 29 c30 28 37 36 29 36 -2 0 -16 -15 -33 -32z"/>
<path d="M2700 2545 c13 -14 26 -25 28 -25 3 0 -5 11 -18 25 -13 14 -26 25
-28 25 -3 0 5 -11 18 -25z"/>
<path d="M21 1824 c0 -11 3 -14 6 -6 3 7 2 16 -1 19 -3 4 -6 -2 -5 -13z"/>
<path d="M3051 1824 c0 -11 3 -14 6 -6 3 7 2 16 -1 19 -3 4 -6 -2 -5 -13z"/>
<path d="M11 1754 c0 -11 3 -14 6 -6 3 7 2 16 -1 19 -3 4 -6 -2 -5 -13z"/>
<path d="M3061 1754 c0 -11 3 -14 6 -6 3 7 2 16 -1 19 -3 4 -6 -2 -5 -13z"/>
<path d="M280 1510 l0 -210 45 0 c35 0 45 4 45 17 0 15 1 15 18 0 29 -27 103
-22 136 8 34 31 46 64 46 126 0 55 -20 103 -49 119 -34 18 -105 12 -129 -10
l-22 -21 0 91 0 90 -45 0 -45 0 0 -210z m182 -7 c26 -23 25 -96 -2 -123 -44
-44 -90 -12 -90 61 0 38 5 51 22 63 29 20 47 20 70 -1z"/>
<path d="M630 1510 l0 -210 45 0 45 0 0 210 0 210 -45 0 -45 0 0 -210z"/>
<path d="M1400 1510 l0 -210 45 0 45 0 0 67 0 67 42 -67 43 -67 53 0 53 0 -55
75 -55 74 22 28 c13 15 36 45 51 66 l28 37 -51 0 -52 0 -39 -62 -40 -63 0 133
0 132 -45 0 -45 0 0 -210z"/>
<path d="M2 1670 c0 -19 2 -27 5 -17 2 9 2 25 0 35 -3 9 -5 1 -5 -18z"/>
<path d="M837 1561 c-58 -38 -79 -105 -55 -176 19 -59 65 -85 146 -85 61 0 66
2 103 39 36 36 39 43 39 96 0 100 -45 145 -147 145 -40 0 -67 -6 -86 -19z
m119 -49 c55 -36 30 -152 -33 -152 -51 0 -80 69 -52 123 15 27 28 37 54 37 11
0 25 -4 31 -8z"/>
<path d="M1179 1557 c-41 -28 -60 -64 -61 -117 -1 -96 51 -143 154 -138 l63 3
3 37 3 36 -34 -10 c-70 -22 -127 42 -96 108 17 35 68 52 104 36 24 -11 25 -11
25 28 l0 40 -64 0 c-49 0 -70 -5 -97 -23z"/>
<path d="M1932 1560 c-81 -50 -81 -190 0 -240 44 -27 131 -27 175 0 47 28 66
72 61 138 -4 48 -10 60 -41 89 -33 30 -42 33 -99 33 -46 0 -72 -6 -96 -20z
m126 -56 c18 -12 22 -25 22 -64 0 -39 -4 -52 -22 -64 -49 -35 -98 -3 -98 64 0
67 49 99 98 64z"/>
<path d="M2230 1440 l0 -140 45 0 45 0 0 94 c0 73 4 98 16 110 18 19 28 20 55
6 17 -10 19 -22 19 -110 l0 -100 45 0 45 0 0 99 c0 106 -12 156 -40 171 -28
15 -93 12 -118 -6 -20 -14 -22 -14 -22 0 0 12 -11 16 -45 16 l-45 0 0 -140z"/>
<path d="M2613 1559 c-33 -21 -63 -81 -63 -125 0 -38 25 -88 55 -112 22 -17
41 -22 92 -22 76 0 103 12 103 45 0 24 -1 25 -60 18 -50 -5 -64 -3 -80 12 -40
36 -26 45 70 45 l90 0 0 35 c0 43 -22 88 -52 109 -33 23 -116 20 -155 -5z
m119 -53 c18 -27 7 -36 -42 -36 -56 0 -67 17 -28 44 23 16 57 12 70 -8z"/>
<path d="M2 1400 c0 -19 2 -27 5 -17 2 9 2 25 0 35 -3 9 -5 1 -5 -18z"/>
<path d="M1740 1370 c-23 -23 -24 -30 -7 -54 9 -12 23 -17 47 -14 30 3 35 7
38 33 6 50 -42 71 -78 35z"/>
<path d="M11 1314 c0 -11 3 -14 6 -6 3 7 2 16 -1 19 -3 4 -6 -2 -5 -13z"/>
<path d="M3061 1314 c0 -11 3 -14 6 -6 3 7 2 16 -1 19 -3 4 -6 -2 -5 -13z"/>
<path d="M21 1244 c0 -11 3 -14 6 -6 3 7 2 16 -1 19 -3 4 -6 -2 -5 -13z"/>
<path d="M3051 1244 c0 -11 3 -14 6 -6 3 7 2 16 -1 19 -3 4 -6 -2 -5 -13z"/>
<path d="M350 547 c0 -2 15 -16 33 -33 l32 -29 -29 33 c-28 30 -36 37 -36 29z"/>
<path d="M2694 518 l-29 -33 33 29 c17 17 32 31 32 33 0 8 -8 1 -36 -29z"/>
<path d="M490 407 c0 -2 15 -16 33 -33 l32 -29 -29 33 c-28 30 -36 37 -36 29z"/>
<path d="M2554 378 l-29 -33 33 29 c17 17 32 31 32 33 0 8 -8 1 -36 -29z"/>
<path d="M1248 23 c7 -3 16 -2 19 1 4 3 -2 6 -13 5 -11 0 -14 -3 -6 -6z"/>
<path d="M1308 13 c7 -3 16 -2 19 1 4 3 -2 6 -13 5 -11 0 -14 -3 -6 -6z"/>
<path d="M1758 13 c7 -3 16 -2 19 1 4 3 -2 6 -13 5 -11 0 -14 -3 -6 -6z"/>
<path d="M1398 3 c12 -2 30 -2 40 0 9 3 -1 5 -23 4 -22 0 -30 -2 -17 -4z"/>
<path d="M1648 3 c12 -2 30 -2 40 0 9 3 -1 5 -23 4 -22 0 -30 -2 -17 -4z"/>
</g>
</svg>
